<svg xmlns="http://www.w3.org/2000/svg" xmlns:xlink="http://www.w3.org/1999/xlink" width="1080" height="1080" viewBox="0 0 1080 1080">
  <defs>
    <clipPath id="clip-Web_1920_1">
      <rect width="1080" height="1080"/>
    </clipPath>
  </defs>
  <g id="Web_1920_1" data-name="Web 1920 – 1" clip-path="url(#clip-Web_1920_1)">
    <rect width="1080" height="1080" fill="#fff"/>
    <g id="tela-checkout-01" transform="translate(-26.5 -7.5)">
      <rect id="Rectangle_1" data-name="Rectangle 1" width="1130.8" height="1130.8" transform="translate(-10.2 -17.9)" fill="#0a2933"/>
      <rect id="Rectangle_2" data-name="Rectangle 2" width="1542.6" height="102.7" transform="translate(-187.5 314.5)" fill="#ff4853"/>
      <g id="Group_1" data-name="Group 1">
        <path id="Path_1" data-name="Path 1" d="M318,114.7h12.8v14.5a41.728,41.728,0,0,1,33-16.9c22,0,39.5,17.7,39.5,43.9s-17.5,43.9-39.5,43.9a39.635,39.635,0,0,1-32.6-16.8v48.5H318Zm72,41.5c0-20.1-12.1-32.2-29.3-32.2-17.4,0-29.6,12.4-29.6,32.2,0,19.6,12.3,32.2,29.6,32.2,17.2,0,29.3-12.3,29.3-32.2Z" fill="#ff4853"/>
        <path id="Path_2" data-name="Path 2" d="M432.9,125.7a26.615,26.615,0,0,1,7-6.8,27.34,27.34,0,0,1,16.2-4.6h10.7v11.6H453.4c-12.3,0-20.1,6.6-20.1,20.9v50.9H420.2v-83H433Z" fill="#ff4853"/>
        <path id="Path_3" data-name="Path 3" d="M515.5,112.3c25.2,0,42.6,18,42.6,43.9,0,25.7-17.4,43.9-42.6,43.9-25,0-42.4-18.2-42.4-43.9C473.1,130.3,490.5,112.3,515.5,112.3Zm0,76.1c17.9,0,29.5-13.3,29.5-32.2,0-19.1-11.6-32.2-29.5-32.2s-29.4,13.6-29.4,32.2c0,19.4,11.5,32.2,29.4,32.2Z" fill="#ff4853"/>
        <path id="Path_4" data-name="Path 4" d="M618.8,198.1a9.453,9.453,0,0,1-11.5,0L579,172.8a16.292,16.292,0,0,1-6.5-13V114.7h13.3v45.1a5.968,5.968,0,0,0,2.4,4.8l24.8,23,25.1-23a5.967,5.967,0,0,0,2.4-4.8V114.7h13v45.1a16.292,16.292,0,0,1-6.5,13Z" fill="#ff4853"/>
        <path id="Path_5" data-name="Path 5" d="M607.9,86.6h27.9a4.7,4.7,0,0,1,4.7,4.7h0v23.3H603.3V91.3a4.549,4.549,0,0,1,4.6-4.7Z" fill="#0f9"/>
        <path id="Path_6" data-name="Path 6" d="M736,197.7v-13c0,4-7.3,15.5-28.4,15.5-25.7,0-37-12.6-37-40.6v-45h13.2v45c0,22.6,9.1,28.8,23.9,28.8,16.4,0,27.9-10,27.9-28.8v-45h13.1v83.1H736Z" fill="#ff4853"/>
        <path id="Path_7" data-name="Path 7" d="M572.5,270.2V241.6h3.2V245h.6a7.244,7.244,0,0,1,2.5-2.7,8.661,8.661,0,0,1,4.9-1.2A9.425,9.425,0,0,1,592,246a11,11,0,0,1,1.3,5.6v.5a11,11,0,0,1-1.3,5.6,8.675,8.675,0,0,1-3.5,3.6,9.027,9.027,0,0,1-4.8,1.2,11.325,11.325,0,0,1-3.6-.6,7.217,7.217,0,0,1-2.4-1.4,6.229,6.229,0,0,1-1.4-1.8h-.6v11.5Zm10.4-10.7a6.856,6.856,0,0,0,5.1-2,7.653,7.653,0,0,0,2-5.6v-.4a7.653,7.653,0,0,0-2-5.6,6.631,6.631,0,0,0-5.1-2,6.856,6.856,0,0,0-5.1,2,7.653,7.653,0,0,0-2,5.6v.4a7.653,7.653,0,0,0,2,5.6A6.5,6.5,0,0,0,582.9,259.5Z" fill="#0f9"/>
        <path id="Path_8" data-name="Path 8" d="M603.4,262.4a10.724,10.724,0,0,1-3.9-.7,5.766,5.766,0,0,1-2.7-2.2,6.28,6.28,0,0,1,0-6.8,6,6,0,0,1,2.7-2,10.361,10.361,0,0,1,3.9-.7h6.8v-1.5a4.3,4.3,0,0,0-1.3-3.4,5.25,5.25,0,0,0-3.8-1.2,5.586,5.586,0,0,0-3.8,1.2,6.128,6.128,0,0,0-1.9,3.2l-3.1-1a9.156,9.156,0,0,1,1.6-3.1,7.727,7.727,0,0,1,2.9-2.2,9.158,9.158,0,0,1,4.3-.8,8.955,8.955,0,0,1,6.1,2,7.447,7.447,0,0,1,2.2,5.7v9.2a1.061,1.061,0,0,0,1.2,1.2h1.9v2.8h-2.9a3.008,3.008,0,0,1-2.2-.8,2.355,2.355,0,0,1-.8-2.1V259h-.5c-.4.6-.8,1.1-1.2,1.6a5.956,5.956,0,0,1-2.1,1.4A9.907,9.907,0,0,1,603.4,262.4Zm.3-2.8a6.039,6.039,0,0,0,6.5-6.5v-.5h-6.7a5.869,5.869,0,0,0-3.2.8,3.127,3.127,0,0,0-1.3,2.5,3.366,3.366,0,0,0,1.3,2.7A5.407,5.407,0,0,0,603.7,259.6Z" fill="#0f9"/>
        <path id="Path_9" data-name="Path 9" d="M618.9,261.9V241.6h3.2v2.5h.6a4.1,4.1,0,0,1,1.7-2,5.088,5.088,0,0,1,3-.6h2.4v3h-2.6a4.387,4.387,0,0,0-4.8,5v12.4Z" fill="#0f9"/>
        <path id="Path_10" data-name="Path 10" d="M641.1,262.4a10.942,10.942,0,0,1-5.3-1.3,9.16,9.16,0,0,1-3.7-3.6,11.918,11.918,0,0,1-1.4-5.6v-.5a9.957,9.957,0,0,1,1.4-5.6,9.16,9.16,0,0,1,3.7-3.6,10.674,10.674,0,0,1,5.3-1.3,11.032,11.032,0,0,1,5,1.1,8.113,8.113,0,0,1,3.2,2.9,8.45,8.45,0,0,1,1.5,3.8l-3.2.7a6.3,6.3,0,0,0-1-2.7,5.775,5.775,0,0,0-2.1-2,6.512,6.512,0,0,0-3.4-.7,7.4,7.4,0,0,0-3.6.9,5.712,5.712,0,0,0-2.5,2.6,7.465,7.465,0,0,0-.9,4.1v.4a9.781,9.781,0,0,0,.9,4.1,6.948,6.948,0,0,0,2.5,2.6,7.683,7.683,0,0,0,3.6.9,6,6,0,0,0,4.6-1.6,6.7,6.7,0,0,0,2-3.9l3.2.7a10.836,10.836,0,0,1-1.7,3.8,8.478,8.478,0,0,1-3.3,2.9A10.827,10.827,0,0,1,641.1,262.4Z" fill="#0f9"/>
        <path id="Path_11" data-name="Path 11" d="M663.8,262.4a11.328,11.328,0,0,1-5.4-1.3,9.16,9.16,0,0,1-3.6-3.7,11.721,11.721,0,0,1-1.3-5.5v-.5a11.722,11.722,0,0,1,1.3-5.5,9.826,9.826,0,0,1,3.6-3.7,11.336,11.336,0,0,1,10.3-.1,7.675,7.675,0,0,1,3.4,3.5,9.99,9.99,0,0,1,1.2,5.4v1.5H656.7a6.68,6.68,0,0,0,7.1,6.9,5.972,5.972,0,0,0,4-1.2,8.927,8.927,0,0,0,2.2-2.9l2.8,1.4a14.523,14.523,0,0,1-1.7,2.6,10.585,10.585,0,0,1-2.9,2.2A8.314,8.314,0,0,1,663.8,262.4Zm-7-12.5H670a6.414,6.414,0,0,0-1.9-4.4,6.716,6.716,0,0,0-4.5-1.6,6.488,6.488,0,0,0-4.6,1.6A7.154,7.154,0,0,0,656.8,249.9Z" fill="#0f9"/>
        <path id="Path_12" data-name="Path 12" d="M677,261.9v-29h3.3v29Z" fill="#0f9"/>
        <path id="Path_13" data-name="Path 13" d="M691.3,262.4a10.724,10.724,0,0,1-3.9-.7,5.766,5.766,0,0,1-2.7-2.2,5.887,5.887,0,0,1-1-3.4,5.236,5.236,0,0,1,1-3.4,6,6,0,0,1,2.7-2,10.361,10.361,0,0,1,3.9-.7h6.8v-1.5a4.3,4.3,0,0,0-1.3-3.4,5.25,5.25,0,0,0-3.8-1.2,5.414,5.414,0,0,0-3.8,1.2,6.128,6.128,0,0,0-1.9,3.2l-3.1-1a9.156,9.156,0,0,1,1.6-3.1,7.727,7.727,0,0,1,2.9-2.2,9.158,9.158,0,0,1,4.3-.8,8.955,8.955,0,0,1,6.1,2,7.369,7.369,0,0,1,2.2,5.6V258a1.061,1.061,0,0,0,1.2,1.2h1.9V262h-2.9a3.008,3.008,0,0,1-2.2-.8,2.355,2.355,0,0,1-.8-2.1v-.2H698c-.4.6-.8,1.1-1.2,1.6a5.956,5.956,0,0,1-2.1,1.4A7.826,7.826,0,0,1,691.3,262.4Zm.4-2.8a6.039,6.039,0,0,0,6.5-6.5v-.5h-6.7a5.869,5.869,0,0,0-3.2.8,3.127,3.127,0,0,0-1.3,2.5,3.366,3.366,0,0,0,1.3,2.7,5.236,5.236,0,0,0,3.4,1Z" fill="#0f9"/>
        <path id="Path_14" data-name="Path 14" d="M714.9,262.4a10.05,10.05,0,0,1-4.8-1.2,8.675,8.675,0,0,1-3.5-3.6,12.122,12.122,0,0,1-1.3-5.6v-.5a11,11,0,0,1,1.3-5.6,8.675,8.675,0,0,1,3.5-3.6,10.153,10.153,0,0,1,4.8-1.3,11.324,11.324,0,0,1,3.6.6,7.217,7.217,0,0,1,2.4,1.4,6.229,6.229,0,0,1,1.4,1.8h.6V232.9h3.3v29H723v-3.4h-.6a7.464,7.464,0,0,1-2.6,2.7A8.661,8.661,0,0,1,714.9,262.4Zm.8-2.9a6.856,6.856,0,0,0,5.1-2,7.653,7.653,0,0,0,2-5.6v-.4a7.653,7.653,0,0,0-2-5.6,7.434,7.434,0,0,0-10.2,0,7.653,7.653,0,0,0-2,5.6v.4a7.653,7.653,0,0,0,2,5.6A6.631,6.631,0,0,0,715.7,259.5Z" fill="#0f9"/>
        <path id="Path_15" data-name="Path 15" d="M740.3,262.4a11.328,11.328,0,0,1-5.4-1.3,9.827,9.827,0,0,1-3.7-3.6,10.636,10.636,0,0,1-1.3-5.5v-.5a11.722,11.722,0,0,1,1.3-5.5,9.4,9.4,0,0,1,3.7-3.7,12.073,12.073,0,0,1,10.8,0,9.827,9.827,0,0,1,3.7,3.6,11.721,11.721,0,0,1,1.3,5.5v.5a11.722,11.722,0,0,1-1.3,5.5,8.581,8.581,0,0,1-3.7,3.6A9.312,9.312,0,0,1,740.3,262.4Zm0-2.9a6.708,6.708,0,0,0,5.2-2.1,7.678,7.678,0,0,0,1.9-5.5v-.4a7.518,7.518,0,0,0-1.9-5.5,6.708,6.708,0,0,0-5.2-2.1,6.636,6.636,0,0,0-5.1,2.1,7.678,7.678,0,0,0-1.9,5.5v.4a7.518,7.518,0,0,0,1.9,5.5,6.636,6.636,0,0,0,5.1,2.1Z" fill="#0f9"/>
      </g>
      <rect id="Rectangle_3" data-name="Rectangle 3" width="744.4" height="204.3" transform="translate(252.9 674.4)" fill="none"/>
      <text id="Até_24x_Pague_o_seu_produto_com_parcelas_que_cabem_no_seu_bolso_" data-name="Até 24x
Pague o seu produto com parcelas que cabem 
no seu bolso!" transform="translate(252.885 699.641)" fill="#0f9" font-size="36" font-family="SpaceGrotesk-Bold, Space Grotesk" font-weight="700"><tspan x="0" y="0">ATÉ 24X</tspan><tspan fill="#fff" font-size="32" font-family="SpaceGrotesk-Regular, Space Grotesk" font-weight="400"><tspan x="0" y="38.4">Pague o seu produto com parcelas que cabem </tspan><tspan x="0" y="76.8">no seu bolso!</tspan></tspan></text>
      <rect id="Rectangle_4" data-name="Rectangle 4" width="719.2" height="69.4" transform="translate(174.7 333.5)" fill="none"/>
      <g id="Group">
        <text id="Parcele_suas_compras_no_boleto_sem_" data-name="Parcele suas compras no boleto, sem " transform="translate(264.5 355.5)" fill="#fff" font-size="32" font-family="SpaceGrotesk-SemiBold, Space Grotesk" font-weight="600"><tspan x="0" y="0">PARCELE SUAS COMPRAS NO BOLETO, SEM </tspan></text>
        <text id="cartão_de_crédito_e_sem_entradas_" data-name="cartão de crédito e sem entradas!" transform="translate(289.168 399.209)" fill="#fff" font-size="32" font-family="SpaceGrotesk-SemiBold, Space Grotesk" font-weight="600"><tspan x="0" y="0">CARTÃO DE CRÉDITO E SEM ENTRADAS!</tspan></text>
      </g>
      <rect id="Rectangle_5" data-name="Rectangle 5" width="775.7" height="156.3" transform="translate(252.9 863.7)" fill="none"/>
      <text id="Taxas_personalizadas_Juros_adaptados_ao_seu_perfil_financeiro_de_3_5_a_7_ao_mês." data-name="Taxas personalizadas
Juros adaptados ao seu perfil financeiro, de 3,5% 
a 7% ao mês." transform="translate(252.885 888.898)" fill="#0f9" font-size="36" font-family="SpaceGrotesk-Bold, Space Grotesk" font-weight="700"><tspan x="0" y="0">TAXAS PERSONALIZADAS</tspan><tspan fill="#fff" font-size="32" font-family="SpaceGrotesk-Regular, Space Grotesk" font-weight="400"><tspan x="0" y="38.4">Juros adaptados ao seu perfil financeiro, de 3,5% </tspan><tspan x="0" y="76.8">a 7% ao mês.</tspan></tspan></text>
      <rect id="Rectangle_6" data-name="Rectangle 6" width="724.3" height="234.4" transform="translate(252.9 497)" fill="none"/>
      <text id="Sem_entradas_Você_só_paga_a_primeira_parcela_em_até_45_dias_após_a_compra_" data-name="Sem entradas!
Você só paga a primeira parcela em até 45 
dias após a compra!" transform="translate(252.885 522.238)" fill="#0f9" font-size="36" font-family="SpaceGrotesk-Bold, Space Grotesk" font-weight="700"><tspan x="0" y="0">SEM ENTRADAS!</tspan><tspan fill="#fff" font-size="32" font-family="SpaceGrotesk-Regular, Space Grotesk" font-weight="400"><tspan x="0" y="38.4">Você só paga a primeira parcela em até 45 </tspan><tspan x="0" y="76.8">dias após a compra!</tspan></tspan></text>
      <g id="Group_6" data-name="Group 6" transform="translate(1)">
        <path id="Path_16" data-name="Path 16" d="M130,486.7h0a2.263,2.263,0,0,1,2.3,2.3V592.2a2.263,2.263,0,0,1-2.3,2.3h0a2.263,2.263,0,0,1-2.3-2.3V489.1A2.348,2.348,0,0,1,130,486.7Z" transform="translate(29)" fill="#00ff8d"/>
        <g id="Group_5" data-name="Group 5" transform="translate(30)">
          <g id="Group_4" data-name="Group 4">
            <g id="Group_3" data-name="Group 3">
              <g id="Group_2" data-name="Group 2">
                <path id="Path_17" data-name="Path 17" d="M161.4,550.9a20.056,20.056,0,0,0-2.8-5.9,26.619,26.619,0,0,0-10.2-8,67.338,67.338,0,0,0-11.5-3.9c-.8-.2-1.6-.4-2.5-.6l-4.2-1c-1.6-.4-3-.7-4.4-1.2-1.3-.4-2.5-.9-3.6-1.3a10.028,10.028,0,0,1-4.2-3.1,7.187,7.187,0,0,1-1.3-4.6,7.617,7.617,0,0,1,3.1-6.5,12.167,12.167,0,0,1,5.8-2.2,25.421,25.421,0,0,1,4.1-.3,23.31,23.31,0,0,1,6.2.8,8.511,8.511,0,0,1,1.7.6,9.661,9.661,0,0,1,4.8,3.8,12.936,12.936,0,0,1,1.7,7v1.2a5.123,5.123,0,0,0,5.2,5.2h6.5a5.164,5.164,0,0,0,5.2-5.2v-1.2q0-9.15-4.2-15.3a25.555,25.555,0,0,0-11.3-9.2,34.248,34.248,0,0,0-8.6-2.5,41.971,41.971,0,0,0-7.2-.6c-1.6,0-3.2.1-4.7.2a35.763,35.763,0,0,0-10.7,2.7,24.761,24.761,0,0,0-10.5,8.5,23.468,23.468,0,0,0-3.8,13.4c0,5.1,1.2,9.4,3.5,12.7a24.76,24.76,0,0,0,9.5,7.9,68.793,68.793,0,0,0,11.7,4.2c.6.2,1.2.3,2,.5l4.2,1c1.8.4,3.5.9,5,1.3,1.3.4,2.6.8,3.7,1.2a11.426,11.426,0,0,1,4.8,3.1,6.882,6.882,0,0,1,1.5,4.6,9.144,9.144,0,0,1-3.5,7.5,13.094,13.094,0,0,1-6.2,2.6,27.063,27.063,0,0,1-5.1.4,27.811,27.811,0,0,1-5.2-.5,15.336,15.336,0,0,1-6.8-3.2c-2.8-2.3-4.2-6-4.2-10.8a5.228,5.228,0,0,0-5.2-5.2h-6.5a5.164,5.164,0,0,0-5.2,5.2c0,6.3,1.4,11.8,4.3,16.3a26.712,26.712,0,0,0,11.8,10.2,38.119,38.119,0,0,0,10.9,3h.3a53.352,53.352,0,0,0,11.3,0h.3a35.864,35.864,0,0,0,10.7-2.9,26.024,26.024,0,0,0,11.1-9.2,24.587,24.587,0,0,0,4-13.8C162.3,555.5,162,553.1,161.4,550.9Zm-6.9,18.5a20.948,20.948,0,0,1-9.2,7.5,32.531,32.531,0,0,1-9.3,2.5,44.527,44.527,0,0,1-5.3.3,46.261,46.261,0,0,1-5.4-.3,30.878,30.878,0,0,1-9.5-2.6,22.021,22.021,0,0,1-9.8-8.5,25.087,25.087,0,0,1-3.6-13.8.472.472,0,0,1,.5-.5h6.5a.472.472,0,0,1,.5.5c0,6.3,2,11.2,5.9,14.4a19.912,19.912,0,0,0,8.8,4.1,30.335,30.335,0,0,0,6.2.6,36.361,36.361,0,0,0,6-.5,17.107,17.107,0,0,0,8.3-3.6,13.892,13.892,0,0,0,5.2-11.1,11.968,11.968,0,0,0-2.5-7.6,15.841,15.841,0,0,0-6.7-4.5c-1.3-.5-2.6-.9-4-1.4-1.6-.5-3.4-1-5.2-1.4l-4.2-1a18.022,18.022,0,0,1-1.9-.5,58.551,58.551,0,0,1-10.8-3.9,19.434,19.434,0,0,1-7.7-6.3c-1.8-2.5-2.7-5.9-2.7-10a18.467,18.467,0,0,1,3-10.7,19.184,19.184,0,0,1,8.6-6.9,28.851,28.851,0,0,1,9.3-2.3c1.3-.1,2.7-.2,4.2-.2a42.618,42.618,0,0,1,6.4.5,34.4,34.4,0,0,1,7.5,2.1,21.2,21.2,0,0,1,9.3,7.6c2.3,3.3,3.4,7.6,3.4,12.7v1.2a.472.472,0,0,1-.5.5h-6.5a.6.6,0,0,1-.4-.1c-.1-.1-.1-.2-.1-.4v-1.2a16.716,16.716,0,0,0-2.5-9.6,14.229,14.229,0,0,0-7-5.5c-.8-.3-1.5-.5-2.2-.7a28.31,28.31,0,0,0-7.4-.9,24.548,24.548,0,0,0-4.8.4,18.719,18.719,0,0,0-7.9,3.1,12.072,12.072,0,0,0-4.9,10.2,12.7,12.7,0,0,0,2.2,7.4,14.345,14.345,0,0,0,6.1,4.5c1.2.5,2.6,1,4.1,1.5a32.271,32.271,0,0,0,4.7,1.2l4.3,1,2.4.6a63.758,63.758,0,0,1,10.7,3.6,20.312,20.312,0,0,1,8.3,6.5,17.21,17.21,0,0,1,2.9,10.3A20.783,20.783,0,0,1,154.5,569.4Z" fill="#ff2d4b"/>
              </g>
            </g>
          </g>
        </g>
      </g>
      <g id="Group_8" data-name="Group 8" transform="translate(31)">
        <path id="Path_18" data-name="Path 18" d="M88.2,703.2V727c2.5-3.7,5-7.5,7.5-11.2l77.1-2.1L96.5,696.8A6.646,6.646,0,0,0,88.2,703.2Z" fill="#00ff8d"/>
        <circle id="Ellipse_1" data-name="Ellipse 1" cx="9.8" cy="9.8" r="9.8" transform="translate(125.3 728.4)" fill="#00ff8d"/>
        <g id="Group_7" data-name="Group 7">
          <path id="Path_19" data-name="Path 19" d="M171.7,713.1H101.5a14.041,14.041,0,0,0-14,14v34.1a2.112,2.112,0,0,0,2.1,2.1h90.8a2.112,2.112,0,0,0,2.1-2.1V724A10.715,10.715,0,0,0,171.7,713.1Zm-70.2,4.2h70.2a6.594,6.594,0,0,1,6.6,6.6V759H91.8V727A9.774,9.774,0,0,1,101.5,717.3Z" fill="#ff2d4b"/>
        </g>
      </g>
      <g id="Group_12" data-name="Group 12" transform="translate(30)">
        <g id="Group_11" data-name="Group 11">
          <g id="Group_10" data-name="Group 10">
            <g id="Group_9" data-name="Group 9">
              <path id="Path_20" data-name="Path 20" d="M165.5,936.5c-6.9-5.7-15.4-7.4-17.8-7.8v-4.9A26.5,26.5,0,0,0,159,902.2v-.3a9.612,9.612,0,0,0,4.5-10.6,8.01,8.01,0,0,0-4.4-5.4v-5.4c0-14.8-11.9-27.1-26.5-27.3h-.5a26.969,26.969,0,0,0-27,26.9v6.1a8.161,8.161,0,0,0-3.8,5.1,9.553,9.553,0,0,0,4.5,10.6v.3a26.727,26.727,0,0,0,12.6,22.6v4a37.331,37.331,0,0,0-15.7,6.3c-7.7,5.7-8.3,13.2-8.3,22.4v7.9a2.476,2.476,0,0,0,2.5,2.5l73,.1a2.609,2.609,0,0,0,1.7-.7,2.342,2.342,0,0,0,.7-1.7c0-1.7,0-3.4.1-5,0-1.3.1-2.6.1-3.9C172.6,949.7,172.1,942,165.5,936.5ZM105.7,939c5.3-3.9,12.4-5.5,15.1-5.5h.3a2.506,2.506,0,0,0,2.3-2.5v-7.7a2.606,2.606,0,0,0-1.3-2.2,21.485,21.485,0,0,1-11.3-19v-1.8a2.463,2.463,0,0,0-1.7-2.3,4.683,4.683,0,0,1-3-5.6,3.2,3.2,0,0,1,2.2-2.3,2.494,2.494,0,0,0,1.7-2.4V880a22.025,22.025,0,0,1,22.4-22A22.271,22.271,0,0,1,154,880.4v7.2a2.376,2.376,0,0,0,2,2.4,3.229,3.229,0,0,1,2.5,2.4,4.683,4.683,0,0,1-3,5.6,2.463,2.463,0,0,0-1.7,2.3v1.8a21.265,21.265,0,0,1-10.1,18.2,2.57,2.57,0,0,0-1.2,2.1v8.5a2.875,2.875,0,0,0,.7,1.8,2.41,2.41,0,0,0,1.8.7,33.13,33.13,0,0,1,17.1,6.8c4.3,3.5,5.2,8.1,5.3,13.9,0,1.8,0,3.8-.1,5.9v2.8l-68-.1v-8.5C99.7,947.5,100.8,942.6,105.7,939Z" fill="#ff2d4b"/>
            </g>
          </g>
        </g>
        <path id="Path_21" data-name="Path 21" d="M174.3,967.9H92.6v-8.7c0-1.9,1.8-3.4,4-3.4h73.6a3.844,3.844,0,0,1,4.1,3.6Z" fill="#00ff8d"/>
      </g>
    </g>
    <text id="Para_compras_até_R_10.000_00_sujeito_a_análise_de_crédito." data-name="Para compras até R$10.000,00, sujeito a análise de crédito." transform="translate(88 1033)" fill="#fff" font-size="20" font-family="SourceSansPro-Regular, Source Sans Pro"><tspan x="204.48" y="20">Para compras até R$10.000,00, sujeito a análise de crédito.</tspan></text>
  </g>
</svg>
